pedal_clip_forces_x_-0.11_y_-0.05.mot
version=1
nRows=167
nColumns=4
inDegrees=yes
endheader
time	PedalClip_calcn_r_Fx	PedalClip_calcn_r_Fy	PedalClip_calcn_r_Fz
0.4108553	-122.9201520133	221.732120491461	0
0.41126162	-122.568041231893	220.562472480829	0
0.41130225	-122.217364822833	219.395524471129	0
0.41136736	-121.868128164463	218.231295519359	0
0.41169291	-121.520339539171	217.069799303575	0
0.41202738	-121.174023596325	215.911110837404	0
0.41206083	-120.829221744238	214.755371953714	0
0.41209427	-120.485981427416	213.602732398219	0
0.41226151	-120.144338024666	212.453323433978	0
0.41245598	-119.804298397839	211.307237096079	0
0.41297757	-119.46587348524	210.164503654191	0
0.41302973	-119.129079592486	209.025105104103	0
0.41313653	-118.793940537856	207.889031492848	0
0.41351737	-118.460523859515	206.756442295115	0
0.41384307	-118.128922914776	205.62758700692	0
0.41387564	-117.799240492409	204.502693386304	0
0.41390821	-117.471560641424	203.381896779375	0
0.41407105	-117.145934141634	202.265250661046	0
0.41428154	-116.822418275673	201.152940537739	0
0.41473207	-116.501045071471	200.04516627563	0
0.41477712	-116.181840244077	198.942147990533	0
0.41488965	-115.864818007981	197.84404918197	0
0.41508899	-115.549961225062	196.750959960953	0
0.41528557	-115.237262713327	195.662989663542	0
0.41581439	-114.9267183191	194.580144789616	0
0.41586727	-114.618325018952	193.502393579566	0
0.41597096	-114.312065138812	192.429718544919	0
0.41636921	-114.007921037871	191.362038022863	0
0.4166971	-113.705854884366	190.29918469229	0
0.41672989	-113.405824474912	189.240926447609	0
0.41676268	-113.107787220055	188.187019786324	0
0.41692662	-112.811694356251	187.13730428369	0
0.41713481	-112.517483038015	186.091633775475	0
0.41760682	-112.225080721213	185.049846992736	0
0.41765402	-111.934413019811	184.011775990215	0
0.41774011	-111.645431693627	182.977329496395	0
0.41791852	-111.358168307141	181.946667172993	0
0.41805331	-111.072693544897	180.920024805701	0
0.41833903	-110.789059094025	179.897469178731	0
0.4187017	-110.507259675124	178.878879252015	0
0.41873797	-110.227242782033	177.863943641967	0
0.41878397	-109.948930084125	176.852417895638	0
0.419014	-109.672249831594	175.844279432006	0
0.41925059	-109.397033592146	174.839097802968	0
0.41966933	-109.123065908965	173.836152896364	0
0.4197112	-108.850179608589	172.834848348572	0
0.41977736	-108.57834345302	171.835106380247	0
0.42010816	-108.307576578667	170.83687449529	0
0.42046463	-108.037895436546	169.839999440622	0
0.42050028	-107.769261765429	168.844162020283	0
0.42054343	-107.501553823957	167.848896825773	0
0.42075918	-107.234643132858	166.853834141039	0
0.42098974	-106.968443258722	165.858837667082	0
0.42142305	-106.702922140688	164.864053076723	0
0.42146638	-106.438039566946	163.86960399117	0
0.42154038	-106.173705301244	162.87530992929	0
0.42191037	-105.909841077274	161.880909677557	0
0.42218976	-105.646417666616	160.886237588244	0
0.42246916	-105.383458850534	159.891350546795	0
0.42253637	-105.120984921585	158.896227199275	0
0.42265112	-104.858983532575	157.900699615034	0
0.42285266	-104.59742462433	156.904688550026	0
0.42311365	-104.336306500255	155.908367293132	0
0.42351046	-104.075605974136	154.911897572915	0
0.42355014	-103.815241101537	153.915190770821	0
0.42360581	-103.555128449939	152.918104728369	0
0.42388416	-103.295201627904	151.920421455752	0
0.42428568	-103.035429500132	150.921940386655	0
0.42449514	-102.775781350959	149.922470134291	0
0.42486438	-102.516206861129	148.921848438783	0
0.42490131	-102.25663372556	147.919833956948	0
0.42497047	-101.997020833766	146.916251469852	0
0.42506861	-101.737389825322	145.911194403616	0
0.4254264	-101.477826135133	144.905143471609	0
0.42577751	-101.218439422162	143.898783529008	0
0.42581263	-100.959324591491	142.892670708388	0
0.42585494	-100.700585174983	141.887241699445	0
0.42606653	-100.442283108117	140.882691005498	0
0.42628225	-100.184460756179	139.879176989424	0
0.42677974	-99.9271810033756	138.876921245005	0
0.42682949	-99.6705078019148	137.8761684598	0
0.42691456	-99.4145269228869	136.877186499807	0
0.42713096	-99.1593531578319	135.880297081337	0
0.42731364	-98.905097654861	134.885734489988	0
0.42787203	-98.6518497571557	133.893549792236	0
0.42807307	-98.3996778785563	132.903650732098	0
0.42840223	-98.1486414954173	131.915975526169	0
0.42882456	-97.8987990511916	130.930682927565	0
0.42886679	-97.6501966586262	129.947943214827	0
0.42892444	-97.4028840390444	128.967842609606	0
0.42921272	-97.1568899489947	127.990400652138	0
0.42989916	-96.9122135320893	127.015569942335	0
0.42999432	-96.6688604550706	126.043472980638	0
0.43039345	-96.4268194149661	125.074255379975	0
0.43043337	-96.186091915041	124.108087444123	0
0.43048438	-95.9466964564721	123.145096319578	0
0.43073942	-95.7086440003913	122.185363814216	0
0.43101085	-95.4719489682629	121.228993628963	0
0.43142452	-95.2366229161422	120.275989791868	0
0.43146588	-95.002654764859	119.326207500761	0
0.43152695	-94.7700030181266	118.379407689476	0
0.43183228	-94.5386245189978	117.43535464204	0
0.43254101	-94.3084801040275	116.493763957249	0
0.43279996	-94.079563741494	115.554459082632	0
0.43325715	-93.8519087690252	114.617339375262	0
0.43330287	-93.625553387747	113.682270814053	0
0.43341371	-93.4005363315598	112.749106401767	0
0.43376165	-93.1768899601112	111.817769117432	0
0.4341379	-92.9546238529969	110.888259310753	0
0.43417552	-92.7337223621886	109.960596737436	0
0.43422408	-92.5141493284846	109.034766930379	0
0.43446688	-92.2958676981442	108.110735305439	0
0.43469295	-92.0788546284476	107.18851231201	0
0.43520867	-91.8631147947759	106.268234343254	0
0.43526024	-91.6486711565495	105.350076331041	0
0.43534855	-91.4355389835048	104.434145459416	0
0.43559721	-91.2237168939857	103.520494896438	0
0.43580651	-91.0131999318538	102.60918742546	0
0.43637726	-90.8039936808734	101.700295850542	0
0.43643433	-90.5960973938174	100.793837910387	0
0.43653178	-90.3894961766783	99.8898172701906	0
0.43690979	-90.1841703388005	98.9881840341704	0
0.43726751	-89.9801040225664	98.0888755706275	0
0.43730328	-89.7772979791243	97.1919099932749	0
0.43733906	-89.5757588868525	96.2972928506156	0
0.43751792	-89.3754977736231	95.4049621407832	0
0.43771382	-89.1765311406679	94.5148437552536	0
0.43829576	-88.9788757928267	93.6269207805336	0
0.43850012	-88.7825469207808	92.7412358768156	0
0.43884611	-88.5875478577696	91.8578615798245	0
0.43935797	-88.393868319238	90.976865838232	0
0.43940916	-88.2014954045984	90.0982794004297	0
0.43952435	-88.0104158081388	89.2221797224038	0
0.4397763	-87.8206145485774	88.3486828035169	0
0.43999958	-87.6320753031328	87.4778901050925	0
0.44059136	-87.4447851919501	86.6098402956188	0
0.44065054	-87.2587403357633	85.7446447401677	0
0.44074683	-87.0739349460761	84.8824965764799	0
0.44097152	-86.8903712500766	84.0236404435452	0
0.44117268	-86.7080548913146	83.1683030088274	0
0.44176321	-86.5269930864798	82.3166345596541	0
0.44197216	-86.3472088983487	81.4687603354221	0
0.44232363	-86.1687277887603	80.6248906172665	0
0.44284505	-85.9915715927282	79.7851860768056	0
0.4428972	-85.8157595058417	78.9496919307844	0
0.44297203	-85.6413187206312	78.1184129703028	0
0.44334622	-85.4682697824713	77.2913993995569	0
0.44374059	-85.2966231060654	76.4687234638596	0
0.44378003	-85.1264052401378	75.6505220002852	0
0.44383228	-84.9576438212842	74.8368138313397	0
0.44409354	-84.7903522500937	74.0274744938314	0
0.44432585	-84.6245204424915	73.2222704038835	0
0.4449318	-84.4601282935619	72.4209470456284	0
0.4449924	-84.2971660312267	71.6234065724449	0
0.44510014	-84.135626393052	70.8296078830257	0
0.44555701	-83.975485109588	70.0394401328569	0
0.4459232	-83.8167149777639	69.2528445195041	0
0.44595982	-83.6592911070767	68.4697030943691	0
0.44599644	-83.5032170343987	67.6898778635298	0
0.44617954	-83.3485063499447	66.9132692154972	0
0.44637438	-83.1951535388367	66.1398213224563	0
0.4469902	-83.0431223606124	65.369523727889	0
0.44705178	-82.8923585142945	64.6024360338908	0
0.44713912	-82.7428120014113	63.8387092630742	0
0.44757583	-82.594441211379	63.0784827417934	0
0.44804604	-82.4472184079579	62.3218049682351	0
0.44840817	-82.3011116871778	61.5686167948365	0
